<svg width="47" height="53" viewBox="0 0 47 53" fill="none" xmlns="http://www.w3.org/2000/svg">
<path d="M31.1 48.5432L25.6 51.7432C24.9 52.1432 24.2 52.3432 23.4 52.3432V44.0432L31.1 48.5432Z" fill="#DC5151"/>
<path d="M31.1 48.5432V39.6432L23.3 44.0432L31.1 48.5432Z" fill="#D83738"/>
<path d="M38.8 44.0432L31.1 48.5432V39.6432L38.8 44.0432Z" fill="#DC5151"/>
<path d="M23.3 35.1432L31.1 39.6432L23.3 44.0432V35.1432Z" fill="#DE5E5C"/>
<path d="M31.1 30.6432L38.8 26.1432V35.1432L31.1 30.6432Z" fill="#DC4B4B"/>
<path d="M46.6 30.6432V37.0432C46.6 37.8432 46.4 38.5432 46 39.2432L38.8 35.1432L46.6 30.6432Z" fill="#D83738"/>
<path d="M46.6 30.6432L38.8 26.1432V35.1432L46.6 30.6432Z" fill="#DE5E5C"/>
<path d="M38.8 26.1432L46.6 21.7432V30.6432L38.8 26.1432Z" fill="#DC4B4B"/>
<path d="M46.6 21.7432L38.8 17.2432V26.1432L46.6 21.7432Z" fill="#E16769"/>
<path d="M46.6 15.3432V21.7432L38.9 17.2432L46.1 13.1432C46.4 13.7432 46.6 14.5432 46.6 15.3432Z" fill="#DE5656"/>
<path d="M0.599976 13.0432L7.79999 17.1432L0.0999756 21.6432V15.2432C0.0999756 14.5432 0.299976 13.7432 0.599976 13.0432Z" fill="#E8573C"/>
<path d="M0.0999756 21.7432L7.79999 26.1432V17.2432L0.0999756 21.7432Z" fill="#EA6644"/>
<path d="M7.79999 26.1432L0.0999756 30.6432V21.7432L7.79999 26.1432Z" fill="#E84C35"/>
<path d="M0.0999756 30.6432L7.79999 35.1432V26.1432L0.0999756 30.6432Z" fill="#E95C3E"/>
<path d="M7.80002 35.1432L0.600006 39.2432C0.200006 38.5432 0 37.8432 0 37.0432V30.6432L7.80002 35.1432Z" fill="#E6402D"/>
<path d="M15.6 48.5432L23.3 44.0432L15.6 39.6432V48.5432Z" fill="#E6402D"/>
<path d="M7.79999 35.1432V44.1432L2.19998 40.9432C1.49998 40.5432 0.999976 40.0432 0.599976 39.3432L7.79999 35.1432Z" fill="#E85138"/>
<path d="M7.80005 44.0432L15.6 39.6432L7.80005 35.1432V44.0432Z" fill="#E6402D"/>
<path d="M15.6 39.6432V48.5432L7.80005 44.0432L15.6 39.6432Z" fill="#E85138"/>
<path d="M23.3 44.0432V52.3432C22.5 52.3432 21.8 52.1432 21.1 51.7432L15.6 48.5432L23.3 44.0432Z" fill="#E85138"/>
<path d="M15.6 39.6432L23.3 35.1432L15.6 30.6432V39.6432Z" fill="#E84C35"/>
<path d="M23.3 35.1432V44.0432L15.6 39.6432L23.3 35.1432Z" fill="#E95C3E"/>
<path d="M23.3 26.1432V35.1432L15.6 30.6432L23.3 26.1432Z" fill="#EA6644"/>
<path d="M46 13.0432L38.8 17.1432V8.24316L44.3 11.4432C45 11.8432 45.6 12.4432 46 13.0432Z" fill="#F08524"/>
<path d="M38.8 8.24316L31.1 12.7432L38.8 17.2432V8.24316Z" fill="#EE7A22"/>
<path d="M31.1 12.7433V3.84326L38.8 8.24326L31.1 12.7433Z" fill="#F08524"/>
<path d="M31.1 3.84326L23.3 8.24326L31.1 12.7433V3.84326Z" fill="#EE7A22"/>
<path d="M31.1 3.84322L23.4 8.34322V0.0432129C24.1 0.0432129 24.9 0.243213 25.5 0.543213L31.1 3.84322Z" fill="#F08524"/>
<path d="M23.3 0.0432129V8.34322L15.6 3.84322L21.1 0.643215C21.8 0.243215 22.5 0.0432129 23.3 0.0432129Z" fill="#EE7A22"/>
<path d="M15.6 3.84326L23.3 8.24326L15.6 12.7433V3.84326Z" fill="#F19129"/>
<path d="M15.6 12.7433L7.80005 8.24326L15.6 3.84326V12.7433Z" fill="#F08524"/>
<path d="M7.80005 8.24316V17.2432L15.6 12.7432L7.80005 8.24316Z" fill="#F49A2B"/>
<path d="M0.599976 13.0432C0.999976 12.3432 1.59998 11.8432 2.19998 11.4432L7.69998 8.24316V17.1432L0.599976 13.0432Z" fill="#F18E29"/>
<path d="M23.3 26.1432L15.6 21.7432L23.3 17.2432V26.1432Z" fill="#F18E29"/>
<path d="M23.3 26.1432V17.2432L31.1 21.7432L23.3 26.1432Z" fill="#F49A2B"/>
<path d="M23.3 26.1432L15.6 30.6432V21.7432L23.3 26.1432Z" fill="#E8573C"/>
<path d="M46 39.2432C45.6 39.9432 45 40.4432 44.4 40.8432L38.9 44.0432L31.1 39.5432L23.4 35.0432V26.0432L31.1 21.5432L38.8 17.0432V25.9432L31.1 30.4432L38.8 34.9432L46 39.2432Z" fill="#EEEDED"/>
<path d="M15.6 21.7432L7.90002 17.2432V26.1432V35.0432L12.4 37.6432L15.7 39.5432V30.6432V21.7432H15.6Z" fill="#F0F0F0"/>
<path d="M31.1 21.7432L38.8 17.2432L23.3 8.24316L7.80005 17.2432L15.6 21.7432V21.6432V21.7432L23.3 17.2432L31.1 21.7432Z" fill="white"/>
<path d="M31.054 48.5L25.554 51.7C24.854 52.1 24.154 52.3 23.354 52.3V44L31.054 48.5Z" fill="#DC5151"/>
<path d="M31.054 48.5V39.6L23.354 44.1L31.054 48.5Z" fill="#D83738"/>
<path d="M38.854 44.1L31.054 48.5V39.6L38.854 44.1Z" fill="#DC5151"/>
<path d="M23.354 35.1L31.054 39.6L23.354 44.1V35.1Z" fill="#DE5E5C"/>
<path d="M31.054 30.6L38.854 26.2V35.0999L31.054 30.6Z" fill="#DC4B4B"/>
<path d="M46.5539 30.6V37C46.5539 37.8 46.3539 38.5 45.9539 39.2L38.7539 35.1L46.5539 30.6Z" fill="#D83738"/>
<path d="M46.554 30.6L38.854 26.2V35.0999L46.554 30.6Z" fill="#DE5E5C"/>
<path d="M38.854 26.2L46.554 21.7V30.6L38.854 26.2Z" fill="#DC4B4B"/>
<path d="M46.554 21.7L38.854 17.2V26.2L46.554 21.7Z" fill="#E16769"/>
<path d="M46.554 15.3V21.7L38.854 17.2L46.054 13.1C46.354 13.8 46.554 14.5 46.554 15.3Z" fill="#DE5656"/>
<path d="M0.653955 13.1L7.85396 17.2L0.0539551 21.7V15.3C0.0539551 14.5 0.253955 13.8 0.653955 13.1Z" fill="#E8573C"/>
<path d="M0.0539551 21.7L7.75395 26.2V17.2L0.0539551 21.7Z" fill="#EA6644"/>
<path d="M7.75395 26.2L0.0539551 30.6V21.7L7.75395 26.2Z" fill="#E84C35"/>
<path d="M0.0539551 30.6L7.75395 35.0999V26.2L0.0539551 30.6Z" fill="#E95C3E"/>
<path d="M7.75395 35.1L0.553955 39.2C0.253955 38.6 0.0539551 37.8 0.0539551 37V30.6L7.75395 35.1Z" fill="#E6402D"/>
<path d="M15.554 48.5L23.354 44.1L15.554 39.6V48.5Z" fill="#E6402D"/>
<path d="M7.75395 35.1V44.1L2.15395 40.9C1.45395 40.5 0.953955 40 0.553955 39.3L7.75395 35.1Z" fill="#E85138"/>
<path d="M7.75391 44.1L15.5539 39.6L7.75391 35.1V44.1Z" fill="#E6402D"/>
<path d="M15.5539 39.6V48.5L7.75391 44.1L15.5539 39.6Z" fill="#E85138"/>
<path d="M23.3539 44.1V52.4C22.5539 52.4 21.8539 52.2 21.1539 51.8L15.6539 48.6L23.3539 44.1Z" fill="#E85138"/>
<path d="M15.554 39.6L23.354 35.1L15.554 30.6V39.6Z" fill="#E84C35"/>
<path d="M23.354 35.1V44.1L15.554 39.6L23.354 35.1Z" fill="#E95C3E"/>
<path d="M23.354 26.2V35.0999L15.554 30.6L23.354 26.2Z" fill="#EA6644"/>
<path d="M45.9539 13.1L38.7539 17.2V8.30005L44.2539 11.5C45.0539 11.8 45.5539 12.4 45.9539 13.1Z" fill="#F08524"/>
<path d="M38.854 8.30005L31.054 12.7L38.854 17.2V8.30005Z" fill="#EE7A22"/>
<path d="M31.054 12.7V3.80005L38.854 8.30005L31.054 12.7Z" fill="#F08524"/>
<path d="M31.054 3.80005L23.354 8.30005L31.054 12.7V3.80005Z" fill="#EE7A22"/>
<path d="M31.054 3.8L23.354 8.3V0C24.054 0 24.854 0.2 25.454 0.5L31.054 3.8Z" fill="#F08524"/>
<path d="M23.3539 0V8.3L15.6539 3.8L21.0539 0.6C21.7539 0.2 22.5539 0 23.3539 0Z" fill="#EE7A22"/>
<path d="M15.554 3.80005L23.354 8.30005L15.554 12.7V3.80005Z" fill="#F19129"/>
<path d="M15.5539 12.7L7.75391 8.30005L15.5539 3.80005V12.7Z" fill="#F08524"/>
<path d="M7.75391 8.30005V17.2L15.5539 12.7L7.75391 8.30005Z" fill="#F49A2B"/>
<path d="M0.653931 13.1C1.05393 12.4 1.65393 11.9 2.25393 11.5L7.75393 8.30005V17.2L0.653931 13.1Z" fill="#F18E29"/>
<path d="M23.354 26.2L15.554 21.7L23.354 17.2V26.2Z" fill="#F18E29"/>
<path d="M23.354 26.2V17.2L31.054 21.7L23.354 26.2Z" fill="#F49A2B"/>
<path d="M23.354 26.2L15.554 30.6V21.7L23.354 26.2Z" fill="#E8573C"/>
<path d="M45.954 39.3C45.554 40 44.954 40.5 44.354 40.9L38.854 44.1L31.054 39.6L23.354 35.1V26.1L31.054 21.6L38.754 17.1V26L31.054 30.6L38.754 35.1L45.954 39.3Z" fill="#EEEDED"/>
<path d="M15.5539 21.7L7.75391 17.2V26.1V35L12.2539 37.5999L15.5539 39.5V30.6V21.7Z" fill="#F0F0F0"/>
<path d="M31.0539 21.7L38.8539 17.2L23.3539 8.30005L7.75391 17.2L15.5539 21.7L23.3539 17.2L31.0539 21.7Z" fill="white"/>
</svg>
